<svg viewBox="0 0 17 14" xmlns="http://www.w3.org/2000/svg">
<path d="M11.2705 0.366609C11.5076 0.34142 11.586 0.333374 11.7888 0.333374C11.9091 0.333374 12.0157 0.362903 12.0552 0.366594C12.6476 0.444108 13.2184 0.636046 13.6421 1.06422C13.9796 1.40749 14.2848 1.38904 14.6582 1.23401C14.6653 1.23032 14.6689 1.23032 14.6761 1.22663C15.1429 1.03469 15.6132 0.839058 16.0799 0.64712C15.8394 1.38534 15.3726 1.96485 14.73 2.40779C14.7407 2.42624 14.7479 2.44839 14.7587 2.46684C15.3367 2.30444 15.9148 2.14203 16.5 1.97962C16.0871 2.58496 15.6096 3.1091 15.0387 3.54465C14.9418 3.61848 14.9023 3.6923 14.9059 3.8178C14.9454 5.1872 14.6977 6.50125 14.1842 7.76361C13.3333 9.85279 11.987 11.5175 10.0123 12.5584C7.39852 13.9352 4.70578 14.0127 1.9879 12.8832C1.53552 12.695 1.10827 12.4366 0.666664 12.2114C0.670254 12.193 0.677435 12.1708 0.681025 12.1524C2.42233 12.3074 3.9949 11.8681 5.42025 10.7608C3.92668 10.6205 2.92857 9.86017 2.3972 8.46861C2.64493 8.46861 2.87471 8.47969 3.10449 8.46492C3.33069 8.45016 3.55329 8.41325 3.77589 8.38741C3.77589 8.36895 3.77589 8.35419 3.7723 8.33574C3.03269 8.14749 2.41874 7.75623 1.94841 7.1435C1.47808 6.53077 1.24112 5.83315 1.24471 5.03218C2.00227 5.3533 2.3613 5.44558 2.65211 5.40129C1.00775 4.15369 1.01852 2.10511 1.71504 0.968248C3.47789 3.09434 5.70748 4.27181 8.43972 4.46743C8.42895 4.38623 8.42536 4.33086 8.41818 4.27919C8.16326 2.76952 8.91364 1.2783 10.2744 0.654502C10.6047 0.503166 10.8445 0.411874 11.2705 0.366609Z" fill="black"/>
</svg>
